<svg xmlns="http://www.w3.org/2000/svg" xmlns:xlink="http://www.w3.org/1999/xlink" width="192" height="83" viewBox="0 0 192 83">
  <defs>
    <clipPath id="clip-HairCutter">
      <rect width="192" height="83"/>
    </clipPath>
  </defs>
  <g id="HairCutter" clip-path="url(#clip-HairCutter)">
    <path id="Path_1" data-name="Path 1" d="M15.468,66.809a9.941,9.941,0,0,1-2.993-6.961A10.127,10.127,0,0,1,12.6,58.08l-.125.113c-.076,0-.788,2.641-.825,2.828v0l0,0c-3.453-3.365-3.815-5.008-4.536-8.282-.21-.954-.448-2.035-.8-3.34-.479-4.042-.712-7.956-.837-10.059-.058-.982-.094-1.575-.119-1.575C4.922,35.55.049,34.571,0,34.561v-.01a24.445,24.445,0,0,1,1.7-5.224,18.658,18.658,0,0,1,2.627-4.256,12.071,12.071,0,0,1,4.261-3.32c1.922-5.547,3.1-6.283,5.189-7.2a8.522,8.522,0,0,0,3.759-3.72.9.9,0,0,1,.091-.16c1.612-2.567,4.664-4.5,6.941-5.662a32.929,32.929,0,0,1,4.6-1.935C29.254,3.046,37.855,0,42.856,0c.222,0,.437.006.638.018C53.523.049,60.44,3.534,64.639,10.673c1.947,3.021,2.808,3.2,5.109,3.671.685.14,1.537.315,2.579.6.854.6,1.465.974,1.957,1.272,1.26.767,1.6.973,2.785,3.22.728.443,1.615,2.068,2.371,4.349a19.961,19.961,0,0,1,1.135,5.851c-2.041,1.83-3.52,2.95-8,2.95-.713,0-1.483-.027-2.354-.082-1.973-2.488-5.009-3.01-7.21-3.01a11.312,11.312,0,0,0-1.874.141c-.033,0-3.438-.071-8.347-.071-2.86,0-5.645.024-8.276.071a35.51,35.51,0,0,1-8.542-3.958,5.2,5.2,0,0,0-2.539-1.11c-1.262,0-2.7,1.217-6.536,4.47l0,0c-.451.382-.933.791-1.454,1.23a32.492,32.492,0,0,1-8.591,4.619,14.848,14.848,0,0,1-3.361.8v8.765c-1.424,4.368-1.307,5.856-.958,6.336a.511.511,0,0,0,.435.226.9.9,0,0,0,.373-.094.534.534,0,0,0,.151-.094C15.467,49.648,18.447,49.4,20.6,49.4a30.844,30.844,0,0,1,3.825.239l5.876-.1h.178a9.938,9.938,0,0,1,7,2.864q.078.076.154.154c.974.8.423,1.182,2.728,1.245.016-.021,3.153,0,3.153,0v3.395H40.361l-.135.116a10.013,10.013,0,0,1-9.577,12.224l-8,.139-.177,0A9.939,9.939,0,0,1,15.468,66.809ZM29.324,52.1l-5.961.1a7.453,7.453,0,0,0-7.321,7.581,7.485,7.485,0,0,0,7.446,7.322h.135l5.961-.1a7.452,7.452,0,0,0-.129-14.9ZM12.585,33.042c3.173,0,6.377-1.625,8.507-2.986a28.686,28.686,0,0,0,3.9-2.985l1.225-.983-.012.007a41.834,41.834,0,0,1-5.079,2.473A30.659,30.659,0,0,1,10.1,31.057a16.191,16.191,0,0,1-3.246-.314A8.056,8.056,0,0,0,12.585,33.042Zm-.015-3.562c3.3,0,7.332-4.029,7.373-4.07l.877-.752c-.463.287-4.608,2.787-8.431,2.788a6.492,6.492,0,0,1-3.348-.834C9.76,28.515,10.948,29.479,12.569,29.479Zm39.817-3.735.434-.2Zm.588-.277-.005,0,.009,0,.005,0Zm.009,0L53,25.459l.011-.005ZM49.567,8.091c4.043,3.832,6.066,7.606,6.013,11.214a8.977,8.977,0,0,1-2.573,6.149,7.722,7.722,0,0,0,4.784-6.065c.331-2.706-.827-6.863-8.222-11.3Zm23.588,14.3a4.573,4.573,0,0,1,.924,1.735,4.1,4.1,0,0,0-.894-3.115,3.681,3.681,0,0,0-2.96-1.331,9.639,9.639,0,0,0-4.714,1.6,11.594,11.594,0,0,1,3.5-.621A5.14,5.14,0,0,1,73.155,22.393Zm-41.18-5.967c-3.748,0-7.774,2.5-11.966,7.43,4.256-3.243,8.217-4.885,11.773-4.885a10.119,10.119,0,0,1,6.113,1.987,8.791,8.791,0,0,1,1.976,1.987,8.267,8.267,0,0,0-7.894-6.52h0ZM40.1,23.757Zm20.657-2.046a5.319,5.319,0,0,1-3.536,1.765,3.622,3.622,0,0,0,1.448.269,4.475,4.475,0,0,0,3.629-1.76c1.233-1.686,1.3-4.413.2-7.886h0C62.816,17.51,62.23,20.072,60.759,21.712Zm-20.85,1.367c.107.378.163.572.185.648-.031-.109-.121-.424-.185-.648l0-.008Zm5.336-10.261a15.337,15.337,0,0,1,4.806,3.457A14.861,14.861,0,0,1,53.213,21.3a13.314,13.314,0,0,0-3.432-9.543A12.056,12.056,0,0,0,40.5,7.708c-4.8,0-10.42,2.264-16.706,6.729a36.255,36.255,0,0,1,13.737-3.19A18.4,18.4,0,0,1,45.245,12.818Zm2.924,7.448c.581-.454,1.524-1.355,1.29-2.307-.229-.932-1.521-1.617-3.839-2.039A6.712,6.712,0,0,1,48.169,20.265Z" transform="translate(1.526 2.423)" fill="#d9842f"/>
    <path id="Path_3" data-name="Path 3" d="M120.832,15.16q-1.985,0-1.985-2.111V6.6q0-2.111,1.985-2.111h2.128q1.985,0,1.985,2.111v6.449q0,2.111-1.985,2.111Zm.344-9.056a.322.322,0,0,0-.088.224V13.3a.322.322,0,0,0,.088.224.282.282,0,0,0,.216.1H122.4a.282.282,0,0,0,.216-.1.322.322,0,0,0,.088-.224V6.328a.322.322,0,0,0-.088-.224.281.281,0,0,0-.216-.1h-1.008A.281.281,0,0,0,121.176,6.1ZM92.784,15.16q-1.983,0-1.984-2.111V11.976h2.128v1.152a.325.325,0,0,0,.088.224.281.281,0,0,0,.216.1h.992a.281.281,0,0,0,.216-.1.321.321,0,0,0,.088-.224V11.1a.318.318,0,0,0-.088-.224.282.282,0,0,0-.216-.1h-1.44q-1.983,0-1.984-2.111V6.6q0-2.111,1.984-2.111H94.56q1.983,0,1.984,2.111v.769H94.416V6.552a.322.322,0,0,0-.088-.224.282.282,0,0,0-.216-.1h-.88a.282.282,0,0,0-.216.1.322.322,0,0,0-.088.224v1.84a.322.322,0,0,0,.088.224.282.282,0,0,0,.216.1h1.44q1.984.032,1.984,2.112v2.224q0,2.111-1.984,2.111ZM133.008,15V4.648h4.047q1.984,0,1.984,2.112V8.824q0,2.113-1.984,2.112h-1.807V15Zm2.24-5.6H136.5a.281.281,0,0,0,.216-.1.322.322,0,0,0,.088-.224V6.5a.322.322,0,0,0-.088-.224.282.282,0,0,0-.216-.1h-1.247ZM108.576,15V10.936H106.8V15h-2.24V4.648h2.24V8.984h1.776V4.648h2.24V15ZM73.168,15V10.835q0-.34-.323-.34H71.706V15h-2.38V4h4.233q2.109,0,2.108,2.244V7.52A1.64,1.64,0,0,1,74.7,9.254a1.314,1.314,0,0,1,.85,1.394V15ZM71.706,8.829h1.258a.3.3,0,0,0,.229-.1.344.344,0,0,0,.094-.239V5.956a.344.344,0,0,0-.094-.239.3.3,0,0,0-.229-.1H71.706ZM56.984,15V4H62V5.939H59.364V8.523h2.465v1.87H59.364v2.635H62V15Zm-14.06,0V4h4.234q2.107,0,2.108,2.244v1A1.641,1.641,0,0,1,48.3,8.982a1.693,1.693,0,0,1,1.105,1.8v1.972Q49.4,15,47.294,15Zm2.38-1.633H46.7a.3.3,0,0,0,.229-.1.343.343,0,0,0,.094-.238V10.563a.344.344,0,0,0-.094-.238.3.3,0,0,0-.229-.1H45.305Zm0-4.811h1.258a.3.3,0,0,0,.229-.1.34.34,0,0,0,.094-.238V5.956a.344.344,0,0,0-.094-.239.3.3,0,0,0-.229-.1H45.305ZM32.946,15V10.835q0-.34-.323-.34H31.484V15H29.1V4h4.233q2.109,0,2.108,2.244V7.52a1.641,1.641,0,0,1-.968,1.733,1.314,1.314,0,0,1,.85,1.394V15ZM31.484,8.829h1.258a.3.3,0,0,0,.229-.1.344.344,0,0,0,.094-.239V5.956a.344.344,0,0,0-.094-.239.3.3,0,0,0-.229-.1H31.484ZM19.006,15V11.311H17.289V15h-2.38V6.075q0-2.244,2.108-2.244h2.261q2.107,0,2.108,2.244V15ZM17.383,5.548a.344.344,0,0,0-.094.238V9.475h1.717V5.786a.344.344,0,0,0-.094-.238.3.3,0,0,0-.229-.1H17.612A.3.3,0,0,0,17.383,5.548ZM.85,15V4H5.083Q7.191,4,7.191,6.245v1a1.641,1.641,0,0,1-.969,1.734,1.693,1.693,0,0,1,1.105,1.8v1.972Q7.327,15,5.219,15ZM3.23,13.368H4.624a.3.3,0,0,0,.229-.1.343.343,0,0,0,.094-.238V10.563a.344.344,0,0,0-.094-.238.3.3,0,0,0-.229-.1H3.23Zm0-4.811H4.488a.3.3,0,0,0,.229-.1.34.34,0,0,0,.094-.238V5.956a.344.344,0,0,0-.094-.239.3.3,0,0,0-.229-.1H3.23Z" transform="translate(49 66)" fill="#dbdbdb"/>
    <path id="Path_2" data-name="Path 2" d="M7.22-9.652V0H1.9V-24.586H7.22v10.3h4.218v-10.3h5.32V0h-5.32V-9.652Zm22.572-8.892h4.294V0H29.792V-1.368A4.372,4.372,0,0,1,25.878.38h-.8q-4.712,0-4.712-5.016v-9.272q0-5.016,4.712-5.016h.8a4.372,4.372,0,0,1,3.914,1.748Zm-.8,14.516V-14.516a.763.763,0,0,0-.209-.532.669.669,0,0,0-.513-.228h-2.09a.669.669,0,0,0-.513.228.763.763,0,0,0-.209.532V-4.028a.763.763,0,0,0,.209.532.669.669,0,0,0,.513.228h2.09a.669.669,0,0,0,.513-.228A.763.763,0,0,0,28.994-4.028ZM42.731-20.862a2.7,2.7,0,0,1-1.957.8,2.733,2.733,0,0,1-1.976-.817,2.661,2.661,0,0,1-.836-1.976,2.661,2.661,0,0,1,.836-1.976,2.733,2.733,0,0,1,1.976-.817,2.67,2.67,0,0,1,1.957.817,2.714,2.714,0,0,1,.817,1.995A2.652,2.652,0,0,1,42.731-20.862ZM38.228,0V-18.544H43.32V0ZM54.8-18.924h.988v4.94H53.276a1.159,1.159,0,0,0-1.292,1.33V0H46.892V-18.544h4.636v1.786A3.506,3.506,0,0,1,54.8-18.924Zm12.616,14.9v-3.8h5.054v3.192Q72.466.38,67.754.38H62.966q-4.712,0-4.712-5.016V-19.95q0-5.016,4.712-5.016h4.788q4.712,0,4.712,5.016v2.318H67.412V-20.6a.763.763,0,0,0-.209-.532.669.669,0,0,0-.513-.228H64.3a.669.669,0,0,0-.513.228.763.763,0,0,0-.209.532V-4.028a.763.763,0,0,0,.209.532.669.669,0,0,0,.513.228H66.69A.669.669,0,0,0,67.2-3.5.763.763,0,0,0,67.412-4.028ZM84.094-18.544h5.092V0H84.55V-.95A4.526,4.526,0,0,1,80.978.38h-.8q-4.712,0-4.712-5.016V-18.544H80.56V-4.028a.763.763,0,0,0,.209.532.669.669,0,0,0,.513.228h2.09a.669.669,0,0,0,.513-.228.763.763,0,0,0,.209-.532ZM99.408-2.926h1.52V.38H97.356q-4.712,0-4.712-5.016V-22.572h5.092v4.028h3.192v3.686H97.736V-4.75a1.927,1.927,0,0,0,.418,1.444A1.811,1.811,0,0,0,99.408-2.926Zm10.944,0h1.52V.38H108.3q-4.712,0-4.712-5.016V-22.572h5.092v4.028h3.192v3.686H108.68V-4.75a1.927,1.927,0,0,0,.418,1.444A1.811,1.811,0,0,0,110.352-2.926Zm13.186-16q4.712,0,4.712,5.016v6h-8.626v3.876a.763.763,0,0,0,.209.532.669.669,0,0,0,.513.228h2.09a.669.669,0,0,0,.513-.228.763.763,0,0,0,.209-.532V-6.08h5.092v1.444q0,5.016-4.712,5.016h-4.294q-4.712,0-4.712-5.016v-9.272q0-5.016,4.712-5.016Zm-3.914,7.676h3.534v-3.42a.763.763,0,0,0-.209-.532.669.669,0,0,0-.513-.228h-2.09a.669.669,0,0,0-.513.228.763.763,0,0,0-.209.532Zm19.342-7.676h.988v4.94h-2.508a1.159,1.159,0,0,0-1.292,1.33V0h-5.092V-18.544H135.7v1.786A3.506,3.506,0,0,1,138.966-18.924Z" transform="translate(48 65)" fill="#fff"/>
  </g>
</svg>
